<?xml version="1.0" encoding="utf-8"?>
<!-- Generator: Adobe Illustrator 26.5.0, SVG Export Plug-In . SVG Version: 6.00 Build 0)  -->
<svg version="1.1" id="레이어_1" xmlns="http://www.w3.org/2000/svg" xmlns:xlink="http://www.w3.org/1999/xlink" x="0px"
	 y="0px" viewBox="0 0 100 50" style="enable-background:new 0 0 100 50;" xml:space="preserve">
<style type="text/css">
	.st0{fill:#F5F5F5;}
</style>
<path class="st0" d="M99.75,49.18c-4.12-1.82-12.17-9.95-12.17-19.88c0.24-1.39,0.37-2.83,0.37-4.3c0-13.8-11-24.99-24.59-24.99
	c-7.61,0-14.41,3.52-18.92,9.04C39.82,3.51,32.93,0,25.24,0C11.32,0,0,11.52,0,25.67v17.21C0,46.81,3.13,50,7,50s7-3.19,7-7.12
	V25.67c0-6.31,5.05-11.44,11.25-11.44s11.25,5.13,11.25,11.44v17.21c0,3.93,3.13,7.12,7,7.12c2.81,0,5.23-1.69,6.34-4.13
	C53.71,48.48,58.36,50,63.36,50h36.21C100.03,50,100.16,49.36,99.75,49.18z M63.36,36.7c-6.21,0-11.24-5.12-11.24-11.44
	c0-6.32,5.04-11.44,11.24-11.44c6.22,0,11.25,5.12,11.25,11.44C74.62,31.57,69.58,36.7,63.36,36.7z"/>
</svg>
